<svg id="Layer_1" data-name="Layer 1" xmlns="http://www.w3.org/2000/svg" viewBox="0 0 20.9 19"><defs><style>.cls-1{fill:#212121;}</style></defs><path class="cls-1" d="M.9,11.4v5.1A2.48,2.48,0,0,0,3.4,19h15a2.48,2.48,0,0,0,2.5-2.5V5.5A2.48,2.48,0,0,0,18.4,3H9.5L11,4.5h7.4a.94.94,0,0,1,1,1v11a.94.94,0,0,1-1,1H3.4a.94.94,0,0,1-1-1V12.9Z"/><path class="cls-1" d="M4.9.8A.71.71,0,0,1,5.6,0a.79.79,0,0,1,.8.8V2a1.43,1.43,0,0,1,1.2.6l3.5,3.5a1.93,1.93,0,0,1,0,2.8L6.9,13.2a1.93,1.93,0,0,1-2.8,0L.6,9.7a1.93,1.93,0,0,1,0-2.8L4.8,2.7l.1-.1Zm0,4.4V4.6L2,7.5h8.2c0-.1-.1-.2-.1-.3L6.6,3.7l-.2-.2V5.2a.74.74,0,0,1-.8.8A.71.71,0,0,1,4.9,5.2ZM2,9l3.1,3.1a.48.48,0,0,0,.7,0L8.9,9Z"/><path class="cls-1" d="M9.9,12.4a5.77,5.77,0,0,1,.3-1.4,4.13,4.13,0,0,1,.7-1.1c.2-.3.5-.6.6-.8s.2-.3.3-.3h0a.78.78,0,0,1,1.1,0l.3.3a5.55,5.55,0,0,1,.6.8,10.54,10.54,0,0,1,.7,1.1,3.19,3.19,0,0,1,.3,1.4,2.45,2.45,0,1,1-4.9,0Zm2.2-1.7a4.05,4.05,0,0,0-.5.9,3.09,3.09,0,0,0-.2.8,1,1,0,1,0,2,0,4.5,4.5,0,0,0-.2-.8,4.05,4.05,0,0,0-.5-.9l-.3-.3Z"/><rect class="cls-1" x="11.4" y="10.2" width="2" height="3.6"/><polygon class="cls-1" points="6.5 3.4 11 7.6 5.6 13.1 0.9 8.1 5.9 3.1 6.5 3.4"/></svg>