<svg id="Layer_1" data-name="Layer 1" xmlns="http://www.w3.org/2000/svg" viewBox="0 0 20.8 19"><defs><style>.cls-1{fill:#212121;}</style></defs><path class="cls-1" d="M.8,11.4v5.1A2.48,2.48,0,0,0,3.3,19h15a2.48,2.48,0,0,0,2.5-2.5V5.5A2.48,2.48,0,0,0,18.3,3H9.4l1.5,1.5h7.4a.94.94,0,0,1,1,1v11a.94.94,0,0,1-1,1H3.3a.94.94,0,0,1-1-1V12.9Z"/><path class="cls-1" d="M4.8.8A.74.74,0,0,1,5.6,0a.79.79,0,0,1,.8.8V2a1.43,1.43,0,0,1,1.2.6l3.5,3.5a1.93,1.93,0,0,1,0,2.8L6.9,13.1a1.93,1.93,0,0,1-2.8,0L.6,9.6a1.93,1.93,0,0,1,0-2.8L4.8,2.6l.1-.1V.8Zm0,4.4V4.6L1.9,7.5h8.2c0-.1-.1-.2-.1-.3L6.5,3.7c-.1-.1-.1-.1-.2-.1V5.3a.68.68,0,0,1-.7.7A.74.74,0,0,1,4.8,5.2ZM1.9,9,5,12.1a.48.48,0,0,0,.7,0L8.8,9Z"/><path class="cls-1" d="M9.8,12.4a5.77,5.77,0,0,1,.3-1.4,4.13,4.13,0,0,1,.7-1.1c.2-.3.5-.6.6-.8s.2-.3.3-.3h0a.78.78,0,0,1,1.1,0l.3.3a5.55,5.55,0,0,1,.6.8,10.54,10.54,0,0,1,.7,1.1,3.19,3.19,0,0,1,.3,1.4,2.45,2.45,0,1,1-4.9,0ZM12,10.7a4.05,4.05,0,0,0-.5.9,3.09,3.09,0,0,0-.2.8,1,1,0,1,0,2,0,4.5,4.5,0,0,0-.2-.8,4.05,4.05,0,0,0-.5-.9l-.3-.3Z"/></svg>