<svg id="Layer_1" data-name="Layer 1" xmlns="http://www.w3.org/2000/svg" viewBox="0 0 576 512"><path d="M402.3,344.9l32-32a8,8,0,0,1,13.7,5.7V464a48,48,0,0,1-48,48H48A48,48,0,0,1,0,464V112A48,48,0,0,1,48,64H321.5a8.05,8.05,0,0,1,5.7,13.7l-32,32a7.93,7.93,0,0,1-5.7,2.3H48V464H400V350.5A7.87,7.87,0,0,1,402.3,344.9Z"/><path d="M558.9,143.1,296.3,405.7l-90.4,10a41.31,41.31,0,0,1-45.6-45.6l10-90.4L432.9,17.1a58.36,58.36,0,0,1,82.7,0l43.2,43.2a58.58,58.58,0,0,1,.1,82.8Z"/><polygon points="460.1 174 402 115.9 216.2 301.8 208.9 367.1 274.2 359.8 460.1 174"/><path d="M524.9,94.3,481.7,51.1a10.44,10.44,0,0,0-14.8,0L436,82l58.1,58.1L525,109.2A10.65,10.65,0,0,0,524.9,94.3Z"/></svg>