<svg id="Layer_1" data-name="Layer 1" xmlns="http://www.w3.org/2000/svg" viewBox="0 0 20 20.5"><defs><style>.cls-1{fill:#212121;}</style></defs><path class="cls-1" d="M18,11a6.82,6.82,0,0,1-3.5,1A6.49,6.49,0,0,1,8,5.5,6.37,6.37,0,0,1,9.7,1.1a2.29,2.29,0,0,0-2.1.4L.8,7.2A2.29,2.29,0,0,0,0,8.9v9.8a1.79,1.79,0,0,0,1.8,1.8h3a1.79,1.79,0,0,0,1.8-1.8v-5a.79.79,0,0,1,.8-.8h3.5a.79.79,0,0,1,.8.8v5a1.79,1.79,0,0,0,1.8,1.8h3a1.79,1.79,0,0,0,1.8-1.8V11Z"/><path class="cls-1" d="M14.5,0A5.55,5.55,0,0,1,20,5.5a5.5,5.5,0,0,1-11,0A5.55,5.55,0,0,1,14.5,0ZM15,8.5V6h2.5a.47.47,0,0,0,.5-.5.47.47,0,0,0-.5-.5H15V2.5a.5.5,0,0,0-1,0V5H11.5a.47.47,0,0,0-.5.5.47.47,0,0,0,.5.5H14V8.5a.5.5,0,0,0,1,0Z"/></svg>