<svg id="Layer_1" data-name="Layer 1" xmlns="http://www.w3.org/2000/svg" viewBox="0 0 24 24"><defs><style>.cls-1{fill:none;stroke:#212121;stroke-miterlimit:10;}.cls-2{fill:#212121;}</style></defs><path class="cls-1" d="M21,12a6.82,6.82,0,0,1-3.5,1A6.49,6.49,0,0,1,11,6.5a6.37,6.37,0,0,1,1.7-4.4,2.55,2.55,0,0,0-2.2.4L3.8,8.2A2.46,2.46,0,0,0,3,9.9v9.8a1.79,1.79,0,0,0,1.8,1.8h3a1.79,1.79,0,0,0,1.8-1.8v-5a.79.79,0,0,1,.8-.8h3.5a.79.79,0,0,1,.8.8v5a1.79,1.79,0,0,0,1.8,1.8h3a1.79,1.79,0,0,0,1.8-1.8V12Z"/><path class="cls-2" d="M17.5,1A5.55,5.55,0,0,1,23,6.5a5.5,5.5,0,0,1-11,0A5.55,5.55,0,0,1,17.5,1ZM18,9.5V7h2.5a.5.5,0,0,0,0-1H18V3.5a.5.5,0,0,0-1,0V6H14.5a.5.5,0,0,0,0,1H17V9.5a.5.5,0,0,0,1,0Z"/></svg>