<svg id="Layer_1" data-name="Layer 1" xmlns="http://www.w3.org/2000/svg" viewBox="0 0 21 25"><defs><style>.cls-1{fill:none;stroke:#000;stroke-miterlimit:10;}</style></defs><g id="icons"><path id="password" class="cls-1" d="M18.5,10.5H6.5V7.7a4.13,4.13,0,0,1,3.6-4.2,4.05,4.05,0,0,1,4.4,4h0a.94.94,0,0,0,1,1h1a.94.94,0,0,0,1-1h0a7,7,0,0,0-6.8-7,7.06,7.06,0,0,0-7.2,7v3h-1a2,2,0,0,0-2,2v7a5,5,0,0,0,5,5h10a5,5,0,0,0,5-5v-7A2,2,0,0,0,18.5,10.5Zm-7,7.7v1.3a1.08,1.08,0,0,1-1,1,1.08,1.08,0,0,1-1-1V18.2a1.94,1.94,0,0,1-1-1.7,2,2,0,0,1,4,0A1.94,1.94,0,0,1,11.5,18.2Z"/></g></svg>