<svg id="Layer_1" data-name="Layer 1" xmlns="http://www.w3.org/2000/svg" viewBox="0 0 15.92 16.04"><defs><style>.cls-1{fill:#212121;}</style></defs><path class="cls-1" d="M9.5,5a.47.47,0,0,0,.5-.5A.47.47,0,0,0,9.5,4a.54.54,0,0,0-.5.5A.54.54,0,0,0,9.5,5ZM0,3A3,3,0,0,1,3,0h8a3,3,0,0,1,3,3V6a2.73,2.73,0,0,0-1.9.8L9.8,9.1,8.1,7.4A1.45,1.45,0,0,0,6,7.4L.6,12.7A2.72,2.72,0,0,1,0,11ZM9.5,6A1.54,1.54,0,0,0,11,4.5a1.5,1.5,0,0,0-3,0A1.54,1.54,0,0,0,9.5,6ZM7.3,11.7,9.1,9.9,7.4,8.2a.48.48,0,0,0-.7,0L1.3,13.5a3.49,3.49,0,0,0,1.7.6H6.2l.2-.8A3.54,3.54,0,0,1,7.3,11.7Zm.7.7,4.8-4.8a1.84,1.84,0,1,1,2.6,2.6L10.6,15a2.07,2.07,0,0,1-1,.6L8.1,16c-.7.2-1.2-.4-1.1-1.1l.4-1.5A2.07,2.07,0,0,1,8,12.4Z"/></svg>