<svg id="Layer_1" data-name="Layer 1" xmlns="http://www.w3.org/2000/svg" viewBox="0 0 16.43 16.54"><defs><style>.cls-1{fill:none;stroke:#212121;stroke-miterlimit:10;stroke-width:0.5px;}</style></defs><path class="cls-1" d="M9.75,5.25a.47.47,0,0,0,.5-.5.5.5,0,0,0-1,0A.47.47,0,0,0,9.75,5.25Zm-9.5-2a3,3,0,0,1,3-3h8a3,3,0,0,1,3,3v3a2.73,2.73,0,0,0-1.9.8l-2.3,2.3-1.7-1.7a1.45,1.45,0,0,0-2.1,0L.85,13a2.72,2.72,0,0,1-.6-1.7Zm9.5,3a1.54,1.54,0,0,0,1.5-1.5,1.5,1.5,0,0,0-3,0A1.54,1.54,0,0,0,9.75,6.25ZM7.55,12l1.8-1.8-1.7-1.7a.48.48,0,0,0-.7,0l-5.4,5.3a3.37,3.37,0,0,0,1.7.5h3.2l.2-.8A3.77,3.77,0,0,1,7.55,12Zm.7.7,4.8-4.8a1.84,1.84,0,1,1,2.6,2.6l-4.8,4.8a2.07,2.07,0,0,1-1,.6l-1.5.4c-.7.2-1.2-.4-1.1-1.1l.4-1.5A2.07,2.07,0,0,1,8.25,12.65Z"/></svg>